<svg width="535" height="131" viewBox="0 0 535 131" fill="none" xmlns="http://www.w3.org/2000/svg"><g clip-path="url(#clip0_2806_88275)"><path d="M535.142 37.1602H510.902V108.08H492.422V37.1602H468.302V21.6802H535.142V37.1602Z" fill="black"/><path d="M452.988 108.08H434.508V21.6802H452.988V108.08Z" fill="black"/><path d="M369.598 108.08H341.758V21.6802H369.358C398.758 21.6802 417.358 39.5602 417.358 64.8802C417.358 90.2002 398.878 108.08 369.598 108.08ZM369.118 37.1602H360.238V92.6002H369.358C387.838 92.6002 398.758 80.6002 398.758 64.8802C398.758 49.2802 387.838 37.1602 369.118 37.1602Z" fill="black"/><path d="M237.113 64.88C237.113 40.04 256.193 20 282.353 20C308.393 20 327.593 39.92 327.593 64.88C327.593 90.08 308.513 109.76 282.353 109.76C256.193 109.76 237.113 90.08 237.113 64.88ZM255.713 64.88C255.713 80.36 266.753 92.84 282.353 92.84C297.953 92.84 308.993 80.36 308.993 64.88C308.993 49.52 297.953 36.92 282.353 36.92C266.753 36.92 255.713 49.52 255.713 64.88Z" fill="black"/><path d="M223.12 109.4H222.52L175.12 63.9201L169.48 59.0001V108.08H151.36V20.3601H152.08L199.36 65.8401L204.88 70.7601V21.6801H223.12V109.4Z" fill="black"/><path fill-rule="evenodd" clip-rule="evenodd" d="M83.9602 15.9162L56.5 0L12.0999 25.733L0 32.7461V98.2539L16.1306 107.602V42.0943L56.4922 18.6964L67.8218 25.2644V90.124L83.9524 80.7758V15.9162H83.9602ZM112.992 32.7539L96.8616 23.4057V88.9057L56.4922 112.304L45.1627 105.736V40.8682L29.032 50.2164V115.076L56.5 131L113 98.2461V32.7539H112.992Z" fill="black"/></g><defs><clipPath id="clip0_2806_88275"><rect width="535" height="131" fill="white"/></clipPath></defs></svg>